<svg xmlns="http://www.w3.org/2000/svg" viewBox="0 0 48 40.62"><defs><style>.cls-1{fill:#d4145a;}</style></defs><title>categoriesIcon</title><g id="Layer_2" data-name="Layer 2"><g id="information"><g id="categories"><path class="cls-1" d="M18.46,0H3.69A3.55,3.55,0,0,0,1.1,1.1,3.55,3.55,0,0,0,0,3.69V14.77a3.55,3.55,0,0,0,1.1,2.6,3.55,3.55,0,0,0,2.6,1.1H18.46a3.74,3.74,0,0,0,3.69-3.69V3.69a3.55,3.55,0,0,0-1.1-2.6A3.55,3.55,0,0,0,18.46,0Z"/><path class="cls-1" d="M18.46,22.15H3.69a3.55,3.55,0,0,0-2.6,1.1A3.55,3.55,0,0,0,0,25.85V36.92a3.55,3.55,0,0,0,1.1,2.6,3.55,3.55,0,0,0,2.6,1.1H18.46a3.74,3.74,0,0,0,3.69-3.69V25.85a3.74,3.74,0,0,0-3.69-3.69Z"/><path class="cls-1" d="M46.9,1.1A3.55,3.55,0,0,0,44.31,0H29.54a3.55,3.55,0,0,0-2.6,1.1,3.55,3.55,0,0,0-1.1,2.6V14.77a3.75,3.75,0,0,0,3.69,3.69H44.31A3.75,3.75,0,0,0,48,14.77V3.69A3.55,3.55,0,0,0,46.9,1.1Z"/><path class="cls-1" d="M44.31,22.15H29.54a3.74,3.74,0,0,0-3.69,3.69V36.92a3.74,3.74,0,0,0,3.69,3.69H44.31A3.74,3.74,0,0,0,48,36.92V25.85a3.74,3.74,0,0,0-3.69-3.69Z"/></g></g></g></svg>