<svg xmlns="http://www.w3.org/2000/svg" xmlns:xlink="http://www.w3.org/1999/xlink" viewBox="0 0 1185.59 565.1"><defs><style>.cls-1{fill:url(#linear-gradient);}.cls-2{fill:url(#linear-gradient-2);}.cls-3{fill:url(#linear-gradient-3);}.cls-4,.cls-5,.cls-6,.cls-7,.cls-8{stroke-miterlimit:10;stroke-width:0.5px;}.cls-4{fill:url(#linear-gradient-4);stroke:url(#linear-gradient-5);}.cls-5{fill:url(#linear-gradient-6);stroke:url(#linear-gradient-7);}.cls-6{fill:url(#linear-gradient-8);stroke:url(#linear-gradient-9);}.cls-7{fill:url(#linear-gradient-10);stroke:url(#linear-gradient-11);}.cls-8{fill:url(#linear-gradient-12);stroke:url(#linear-gradient-13);}.cls-9{fill:url(#linear-gradient-14);}.cls-10{fill:url(#linear-gradient-15);}.cls-11{fill:url(#linear-gradient-16);}.cls-12{fill:url(#linear-gradient-17);}.cls-13{fill:url(#linear-gradient-18);}.cls-14{fill:url(#linear-gradient-19);}</style><linearGradient id="linear-gradient" y1="282.55" x2="1185.59" y2="282.55" gradientUnits="userSpaceOnUse"><stop offset="0" stop-color="#9e005d"/><stop offset="1" stop-color="#d4145a"/></linearGradient><linearGradient id="linear-gradient-2" x1="1292.48" y1="527.79" x2="1429.72" y2="527.79" gradientTransform="matrix(0.69, -0.25, 0.19, 0.52, -811, 245.81)" xlink:href="#linear-gradient"/><linearGradient id="linear-gradient-3" x1="1033.37" y1="716.33" x2="1170.61" y2="716.33" gradientTransform="matrix(0.23, 1.38, -0.5, 0.08, 218.03, -1197.4)" xlink:href="#linear-gradient"/><linearGradient id="linear-gradient-4" x1="515.14" y1="290.1" x2="691.14" y2="290.1" gradientTransform="translate(-233.83 6.38)" gradientUnits="userSpaceOnUse"><stop offset="0" stop-color="#9e005d" stop-opacity="0"/><stop offset="1" stop-color="#d4145a"/></linearGradient><linearGradient id="linear-gradient-5" x1="514.89" y1="290.1" x2="691.39" y2="290.1" xlink:href="#linear-gradient-4"/><linearGradient id="linear-gradient-6" x1="397.54" y1="-70.21" x2="573.54" y2="-70.21" gradientTransform="translate(94.77 478.69)" xlink:href="#linear-gradient-4"/><linearGradient id="linear-gradient-7" x1="397.29" y1="-70.21" x2="573.79" y2="-70.21" gradientTransform="translate(94.77 478.69)" xlink:href="#linear-gradient-4"/><linearGradient id="linear-gradient-8" x1="771.08" y1="65.78" x2="947.08" y2="65.78" gradientTransform="translate(-250.19 194.41) scale(0.93 1)" xlink:href="#linear-gradient-4"/><linearGradient id="linear-gradient-9" x1="770.83" y1="65.78" x2="947.33" y2="65.78" gradientTransform="translate(-250.19 194.41) scale(0.93 1)" gradientUnits="userSpaceOnUse"><stop offset="0.44" stop-color="#9e005d" stop-opacity="0"/><stop offset="0.5" stop-color="#a0015d" stop-opacity="0.03"/><stop offset="0.58" stop-color="#a5025d" stop-opacity="0.12"/><stop offset="0.67" stop-color="#ac055c" stop-opacity="0.27"/><stop offset="0.78" stop-color="#b7095c" stop-opacity="0.47"/><stop offset="0.89" stop-color="#c50f5b" stop-opacity="0.73"/><stop offset="1" stop-color="#d4145a"/></linearGradient><linearGradient id="linear-gradient-10" x1="684.2" y1="-8.51" x2="860.2" y2="-8.51" gradientTransform="translate(-187.89 105.99)" xlink:href="#linear-gradient-4"/><linearGradient id="linear-gradient-11" x1="683.95" y1="-8.51" x2="860.45" y2="-8.51" gradientTransform="translate(-187.89 105.99)" xlink:href="#linear-gradient-4"/><linearGradient id="linear-gradient-12" x1="744.41" y1="-47.77" x2="920.41" y2="-47.77" gradientTransform="translate(-255.1 214.24)" xlink:href="#linear-gradient-4"/><linearGradient id="linear-gradient-13" x1="640.37" y1="102.86" x2="522.42" y2="234.16" gradientTransform="matrix(-0.67, -0.74, 0.74, -0.67, 840.51, 711.59)" xlink:href="#linear-gradient-4"/><linearGradient id="linear-gradient-14" x1="699.27" y1="373.72" x2="836.7" y2="373.72" gradientTransform="matrix(1.06, 0, 0, 1.12, -42.96, -54.16)" xlink:href="#linear-gradient"/><linearGradient id="linear-gradient-15" x1="660.31" y1="282.38" x2="741.47" y2="282.38" gradientTransform="translate(1377.23 539.09) rotate(180)" xlink:href="#linear-gradient"/><linearGradient id="linear-gradient-16" x1="1334.43" y1="379.72" x2="1406.95" y2="379.72" gradientTransform="translate(1281.61 1034.52) rotate(-161.81)" xlink:href="#linear-gradient"/><linearGradient id="linear-gradient-17" x1="710.97" y1="201.16" x2="766.65" y2="201.16" gradientTransform="translate(1392.94 545.21) rotate(180)" xlink:href="#linear-gradient"/><linearGradient id="linear-gradient-18" x1="1111.78" y1="327.97" x2="1152.97" y2="327.97" gradientTransform="translate(1236.57 -296.37) rotate(138.63)" xlink:href="#linear-gradient"/><linearGradient id="linear-gradient-19" x1="734.02" y1="341.35" x2="765.21" y2="341.35" gradientTransform="translate(1367.26 550.12) rotate(180)" xlink:href="#linear-gradient"/></defs><title>Asset 6</title><g id="Layer_2" data-name="Layer 2"><g id="hero"><path class="cls-1" d="M1185.31,109.73c-6,32.2-103.78,14.16-196,78-19.7,13.64-35.47,29.42-67,61-47.1,47.16-71.26,81-89,102-51.23,60.67-112.1,89.22-182,122-31.72,14.88-389.37,182.62-567,26C73.36,489.08,4,426,.31,331.73c-.84-21.59-3.46-89.54,48-136,35.17-31.76,78.66-35,105-38,112.54-12.64,133.9-49.1,279-96,320-103.44,633-60.87,728,11C1167.6,78.24,1188.2,94.18,1185.31,109.73Z"/><polygon class="cls-2" points="280.01 165.53 180.56 187.67 180.97 188.68 280.43 166.54 280.01 165.53"/><polygon class="cls-3" points="119.72 473.4 100.34 282.73 99.35 282.98 118.73 473.65 119.72 473.4"/><rect class="cls-4" x="281.31" y="296.23" width="176" height="0.5" transform="translate(777.88 56.98) rotate(110.86)"/><rect class="cls-5" x="492.31" y="408.23" width="176" height="0.5" transform="translate(1289.96 405.99) rotate(144.66)"/><rect class="cls-6" x="468.21" y="259.94" width="163.97" height="0.5" transform="translate(624.78 -343.84) rotate(71.73)"/><rect class="cls-7" x="496.31" y="97.23" width="176" height="0.5" transform="translate(984.38 -339.4) rotate(123.01)"/><rect class="cls-8" x="489.31" y="166.23" width="176" height="0.5" transform="translate(1145.26 -29.56) rotate(144.87)"/><path class="cls-9" d="M845.39,333.26q-3,3.87-5.79,7.32c-35.24,43.65-74.69,72.36-118.23,97a86.17,86.17,0,0,1-22-63.18c2.71-46.23,58.19-90,84.47-78.57,13.5,5.88,28.77,10.37,38.46,13.31C832.82,312.35,839.35,323.68,845.39,333.26Z"/><circle class="cls-10" cx="685.24" cy="256.71" r="40.58" transform="translate(-35.64 131.05) rotate(-10.65)"/><path class="cls-11" d="M71.13,236.89c5.51-17.92,26.59-24.36,45.76-23.13,16.78,1.08,29.38,26.74,23.13,45.76s-25.74,23.16-45.76,23.13C75.88,282.62,65.24,256,71.13,236.89Z"/><circle class="cls-12" cx="660.23" cy="344.05" r="27.84" transform="matrix(0.98, -0.18, 0.18, 0.98, -52.21, 127.93)"/><path class="cls-13" d="M158.18,216.44c-7.87-5.71-6.48-20.88,1.78-28.16s27.34-6.55,28.16,1.78c1.08,11,6.48,20.88-1.78,28.16S167.11,222.9,158.18,216.44Z"/><circle class="cls-14" cx="621.07" cy="208.77" r="15.59" transform="translate(-27.88 118.37) rotate(-10.65)"/></g></g></svg>