<svg xmlns="http://www.w3.org/2000/svg" viewBox="0 0 39.66 39.66"><defs><style>.cls-1{fill:#d4145a;}</style></defs><title>organiseIcon</title><g id="Layer_2" data-name="Layer 2"><g id="information"><g id="organize"><g id="icon"><path class="cls-1" d="M19.83,0a4,4,0,1,0,4,4A4,4,0,0,0,19.83,0Zm0,6.61A2.64,2.64,0,1,1,22.48,4,2.64,2.64,0,0,1,19.83,6.61Z"/><path class="cls-1" d="M14.52,5.72a.61.61,0,0,0,0-.11v0s0,0,0,0l-.06-.09-.08-.11-.13-.09-.07-.05L11.51,4A.66.66,0,0,0,11,5.23l1.37.63A15.84,15.84,0,0,0,4,19.83a.66.66,0,1,0,1.32,0A14.52,14.52,0,0,1,12.44,7.31l-.48,1a.66.66,0,0,0,.31.88.65.65,0,0,0,.29.07.66.66,0,0,0,.59-.37l1.32-2.76a0,0,0,0,1,0,0,.64.64,0,0,0,0-.14.68.68,0,0,0,0-.11A.66.66,0,0,0,14.52,5.72Z"/><path class="cls-1" d="M37.49,17.38a.66.66,0,0,0-.93,0l-.94.94A15.84,15.84,0,0,0,26,5.23a.66.66,0,1,0-.52,1.22,14.52,14.52,0,0,1,8.74,11.68l-.75-.75a.66.66,0,0,0-.93.93l2,2a.66.66,0,0,0,.93,0h0l2-2A.66.66,0,0,0,37.49,17.38Z"/><path class="cls-1" d="M26.39,33.57h0a.66.66,0,0,0-.87-.35h0a14.66,14.66,0,0,1-9.43.65l.62-.18a.66.66,0,0,0-.37-1.27l-2.64.78h0a.66.66,0,0,0-.17.09l-.07,0a.64.64,0,0,0-.16.22.66.66,0,0,0-.05.27,2,2,0,0,0,.07.26s0,0,0,0l1.32,2.53a.66.66,0,0,0,1.17-.61l-.54-1A15.91,15.91,0,0,0,26,34.44.66.66,0,0,0,26.39,33.57Z"/><path class="cls-1" d="M8.59,30.41H8.44l-.14.07a5.27,5.27,0,0,1-4.7,0l-.14-.07H3.31A3.31,3.31,0,0,0,0,33.71v4a2,2,0,0,0,2,2H9.92a2,2,0,0,0,2-2v-4A3.31,3.31,0,0,0,8.59,30.41Zm2,7.27a.66.66,0,0,1-.66.66H2a.66.66,0,0,1-.66-.66v-4a2,2,0,0,1,1.84-2,6.62,6.62,0,0,0,5.57,0,2,2,0,0,1,1.84,2Z"/><path class="cls-1" d="M5.95,21.82a4,4,0,1,0,4,4A4,4,0,0,0,5.95,21.82Zm0,6.61a2.64,2.64,0,1,1,2.64-2.64A2.64,2.64,0,0,1,5.95,28.43Z"/><path class="cls-1" d="M36.36,30.41H36.2l-.14.07a5.27,5.27,0,0,1-4.7,0l-.14-.07h-.16a3.31,3.31,0,0,0-3.31,3.31v4a2,2,0,0,0,2,2h7.93a2,2,0,0,0,2-2v-4A3.31,3.31,0,0,0,36.36,30.41Zm2,7.27a.66.66,0,0,1-.66.66H29.75a.66.66,0,0,1-.66-.66v-4a2,2,0,0,1,1.84-2,6.62,6.62,0,0,0,5.57,0,2,2,0,0,1,1.84,2Z"/><path class="cls-1" d="M33.71,21.82a4,4,0,1,0,4,4A4,4,0,0,0,33.71,21.82Zm0,6.61a2.64,2.64,0,1,1,2.64-2.64A2.64,2.64,0,0,1,33.71,28.43Z"/><path class="cls-1" d="M22.48,8.59h-.16l-.14.07a5.27,5.27,0,0,1-4.7,0l-.14-.07h-.16a3.31,3.31,0,0,0-3.31,3.31v4a2,2,0,0,0,2,2H23.8a2,2,0,0,0,2-2v-4A3.31,3.31,0,0,0,22.48,8.59Zm2,7.27a.66.66,0,0,1-.66.66H15.87a.66.66,0,0,1-.66-.66v-4a2,2,0,0,1,1.84-2,6.62,6.62,0,0,0,5.57,0,2,2,0,0,1,1.84,2Z"/></g></g></g></g></svg>