<svg xmlns="http://www.w3.org/2000/svg" viewBox="0 0 92 24.53"><defs><style>.cls-1{fill:#d4145a;}</style></defs><title>searchIcon</title><g id="Layer_2" data-name="Layer 2"><g id="information"><g id="search"><path class="cls-1" d="M12.27,0A12.27,12.27,0,1,0,24.53,12.27,12.28,12.28,0,0,0,12.27,0Zm0,21.47a9.2,9.2,0,1,1,9.2-9.2A9.21,9.21,0,0,1,12.27,21.47Z"/><path class="cls-1" d="M79.73,0A12.27,12.27,0,1,0,92,12.27,12.28,12.28,0,0,0,79.73,0Zm0,21.47a9.2,9.2,0,1,1,9.2-9.2A9.21,9.21,0,0,1,79.73,21.47Z"/><path class="cls-1" d="M46,0A12.27,12.27,0,1,0,58.27,12.27,12.28,12.28,0,0,0,46,0Zm0,21.47a9.2,9.2,0,1,1,9.2-9.2A9.21,9.21,0,0,1,46,21.47Z"/></g></g></g></svg>