<svg xmlns="http://www.w3.org/2000/svg" xmlns:xlink="http://www.w3.org/1999/xlink" viewBox="0 0 1367 320"><defs><style>.cls-1{fill:url(#linear-gradient);}.cls-2,.cls-3,.cls-4,.cls-5{stroke-miterlimit:10;stroke-width:0.5px;}.cls-2{fill:url(#linear-gradient-2);stroke:url(#linear-gradient-3);}.cls-3{fill:url(#linear-gradient-4);stroke:url(#linear-gradient-5);}.cls-4{fill:url(#linear-gradient-6);stroke:url(#linear-gradient-7);}.cls-5{fill:url(#linear-gradient-8);stroke:url(#linear-gradient-9);}.cls-6{fill:url(#linear-gradient-10);}.cls-7{fill:url(#linear-gradient-11);}.cls-8{fill:url(#linear-gradient-12);}</style><linearGradient id="linear-gradient" y1="160" x2="1367" y2="160" gradientUnits="userSpaceOnUse"><stop offset="0" stop-color="#9e005d"/><stop offset="1" stop-color="#d4145a"/></linearGradient><linearGradient id="linear-gradient-2" x1="2049.57" y1="-2055.93" x2="2225.57" y2="-2055.93" gradientTransform="translate(-1280.57 2134.68)" gradientUnits="userSpaceOnUse"><stop offset="0" stop-color="#9e005d" stop-opacity="0"/><stop offset="1" stop-color="#d4145a"/></linearGradient><linearGradient id="linear-gradient-3" x1="815.03" y1="553.66" x2="697.07" y2="684.95" gradientTransform="translate(901.58 1055.05) rotate(-131.94)" xlink:href="#linear-gradient-2"/><linearGradient id="linear-gradient-4" x1="2155.19" y1="-2374.53" x2="2331.19" y2="-2374.53" gradientTransform="translate(-1152.19 2636.28)" xlink:href="#linear-gradient-2"/><linearGradient id="linear-gradient-5" x1="981.45" y1="845.15" x2="863.49" y2="976.44" gradientTransform="translate(1029.96 1556.65) rotate(-131.94)" xlink:href="#linear-gradient-2"/><linearGradient id="linear-gradient-6" x1="1807.62" y1="-1506.71" x2="1983.62" y2="-1506.71" gradientTransform="translate(-1706.62 1573.46)" xlink:href="#linear-gradient-2"/><linearGradient id="linear-gradient-7" x1="568.16" y1="6.62" x2="450.21" y2="137.92" gradientTransform="translate(475.53 493.83) rotate(-131.94)" xlink:href="#linear-gradient-2"/><linearGradient id="linear-gradient-8" x1="428.63" y1="64.85" x2="473.64" y2="64.85" gradientTransform="matrix(1, 0, 0, 1, 0, 0)" xlink:href="#linear-gradient-2"/><linearGradient id="linear-gradient-9" x1="484.25" y1="27.98" x2="417.95" y2="101.78" gradientTransform="matrix(1, 0, 0, 1, 0, 0)" xlink:href="#linear-gradient-2"/><linearGradient id="linear-gradient-10" x1="898.93" y1="-1593.23" x2="980.1" y2="-1593.23" gradientTransform="translate(1917.55 -1528.25) rotate(180)" xlink:href="#linear-gradient"/><linearGradient id="linear-gradient-11" x1="2029.56" y1="-1116.22" x2="2057.84" y2="-1116.22" gradientTransform="translate(2982.77 -994.59) rotate(180)" xlink:href="#linear-gradient"/><linearGradient id="linear-gradient-12" x1="226.96" y1="253.43" x2="385.69" y2="253.43" gradientTransform="translate(4.05 -4.64) rotate(0.93)" xlink:href="#linear-gradient"/></defs><title>searchBg</title><g id="Layer_2" data-name="Layer 2"><g id="search_engige" data-name="search engige"><polygon class="cls-1" points="1367 0 1367 306 0 320 0 9 1367 0"/><rect class="cls-2" x="769" y="78.5" width="176" height="0.5" transform="matrix(-0.5, 0.87, -0.87, -0.5, 1353.7, -624.06)"/><rect class="cls-3" x="1003" y="261.5" width="176" height="0.5" transform="translate(2038.01 863.38) rotate(-161.06)"/><rect class="cls-4" x="101" y="66.5" width="176" height="0.5" transform="translate(16.14 -34.73) rotate(10.96)"/><polyline class="cls-5" points="473.64 18.54 429.09 111.16 428.63 110.95 473.07 18.55"/><circle class="cls-6" cx="986.93" cy="64.98" r="40.58" transform="translate(4.99 183.5) rotate(-10.65)"/><circle class="cls-7" cx="942.18" cy="121.63" r="14.14" transform="translate(78.73 517.81) rotate(-32)"/><path class="cls-8" d="M364,291.17a64.83,64.83,0,0,1-14.76,24.36l-125.16,1.35c-14.12-21.14-19.06-52.66-10.82-78,12.77-39.23,59.35-52.64,101.49-49.24C351.63,192.63,378.43,249.54,364,291.17Z"/></g></g></svg>